<svg width="20" height="20" viewBox="0 0 20 20" fill="none" xmlns="http://www.w3.org/2000/svg">
<g clip-path="url(#clip0_112_421)">
<path d="M14.6601 1.27961L7.38006 2.90481C6.90014 3.01192 6.8342 3.65165 7.27549 3.86774L8.64784 4.53985C11.5952 5.98329 13.3664 8.22486 13.3622 8.22084C15.2802 10.4964 19.058 9.77475 19.8642 6.54959C20.6562 3.46751 17.8653 0.564066 14.6601 1.27961Z" fill="white"/>
<path d="M14.7563 5.32498C14.7617 5.32717 12.2867 3.90026 9.01437 3.65014L7.49078 3.53365C7.25363 3.51553 7.09051 3.36111 7.03101 3.17529C6.91699 3.4108 6.98988 3.72795 7.27543 3.86779L8.64777 4.53987C11.5951 5.98331 13.3663 8.22487 13.3621 8.22085C15.2802 10.4964 19.0579 9.77476 19.864 6.54956C20.1 5.63155 20.0179 4.72944 19.7018 3.93401C18.7372 5.58745 16.595 6.30889 14.7563 5.32498Z" fill="white"/>
<path d="M16.6471 13.1253L12.2214 10.7209C11.8377 10.5125 11.4133 10.8841 11.5574 11.2981L11.8165 12.0422C12.5989 14.2897 12.6107 16.227 12.6066 16.139C12.7047 18.2685 15.0889 19.5755 16.9228 18.3691C18.8452 17.0868 18.6782 14.2289 16.6471 13.1253Z" fill="white"/>
<path d="M14.2506 15.6716C14.2764 15.7559 13.7827 13.8825 12.4653 11.9006L12.0291 11.2445C11.8966 11.0451 11.9316 10.816 12.0595 10.6662C11.7301 10.6177 11.4335 10.942 11.5575 11.298L11.8165 12.0421C12.599 14.2896 12.6107 16.2269 12.6067 16.1389C12.7047 18.2684 15.0889 19.5754 16.9229 18.3689C17.2679 18.1388 17.5452 17.8578 17.7569 17.5455C16.3535 17.9764 14.7246 17.2168 14.2506 15.6716Z" fill="white"/>
<path d="M7.32176 11.3044C5.62917 9.86999 3.73866 8.41839 2.06589 5.36069C1.73874 4.88311 1.00503 5.05268 0.938345 5.62788L0.0321327 13.4414C-0.368806 16.8985 3.05538 19.5015 6.22199 18.3084C9.16266 17.2008 9.75699 13.2903 7.32176 11.3044Z" fill="white"/>
<path d="M2.581 13.2463L1.50784 5.45387C1.48866 5.31453 1.51378 5.18875 1.56874 5.08332C1.2728 5.07395 0.979361 5.27395 0.938306 5.62774L0.0321327 13.4413C-0.368806 16.8984 3.05538 19.5014 6.22199 18.3083C6.88156 18.0599 7.42265 17.6701 7.83848 17.193C5.44527 17.5402 2.9514 15.9353 2.581 13.2463Z" fill="white"/>
</g>
<defs>
<clipPath id="clip0_112_421">
<rect width="20" height="20" fill="white"/>
</clipPath>
</defs>
</svg>
