<svg width="20" height="20" viewBox="0 0 20 20" fill="none" xmlns="http://www.w3.org/2000/svg">
<path d="M10.0166 13.9321C9.43328 14.382 8.22888 15.4946 8.22888 17.0105C8.22888 18.0112 9.03042 18.8254 10.0157 18.8254C11.001 18.8254 11.8025 18.0112 11.8025 17.0105C11.8025 15.5749 10.5974 14.41 10.0166 13.9321Z" fill="white"/>
<path d="M14.2035 3.48096C13.9868 3.23264 13.6128 3.2176 13.3768 3.4408L10.6558 6.0142V0.624943C10.6558 0.173811 10.1189 -0.163259 9.71694 0.0831466C9.64084 0.129787 7.83251 1.24869 6.00533 3.28061C3.7837 5.75123 2.27063 8.75939 2.27063 12.133C2.27063 16.4709 5.74507 20 10.0157 20C8.39273 20 7.07237 18.6588 7.07237 17.0103C7.07237 14.3466 9.62472 12.7693 9.73336 12.7034C9.9238 12.5881 10.1622 12.5935 10.3474 12.7171C10.4541 12.7883 12.959 14.4908 12.959 17.0103C12.959 18.6588 11.6387 20 10.0157 20C14.2863 20 17.7608 16.4709 17.7608 12.133C17.7608 8.85744 16.3343 5.92154 14.2035 3.48096Z" fill="white"/>
</svg>
